<mxfile host="app.diagrams.net" modified="2023-12-20T14:23:09.785Z" agent="Mozilla/5.0 (Windows NT 10.0; Win64; x64) AppleWebKit/537.36 (KHTML, like Gecko) Chrome/120.0.0.0 Safari/537.36" etag="22_yWTj3ZCtWjPsbtJkp" version="22.1.11" type="device">
  <diagram name="Sayfa -1" id="vzv51OgUZuaPfuxBXVzy">
    <mxGraphModel dx="1050" dy="1691" grid="1" gridSize="10" guides="1" tooltips="1" connect="1" arrows="1" fold="1" page="1" pageScale="1" pageWidth="827" pageHeight="1169" math="0" shadow="0">
      <root>
        <mxCell id="0" />
        <mxCell id="1" parent="0" />
        <mxCell id="0oJ1ldceQkWoPfUIlDhL-1" value="" style="whiteSpace=wrap;html=1;aspect=fixed;" vertex="1" parent="1">
          <mxGeometry x="340" y="-490" width="90" height="90" as="geometry" />
        </mxCell>
        <mxCell id="0oJ1ldceQkWoPfUIlDhL-2" value="Üniversite" style="text;html=1;strokeColor=none;fillColor=default;align=center;verticalAlign=middle;whiteSpace=wrap;rounded=0;gradientColor=none;labelBorderColor=none;fontStyle=1" vertex="1" parent="1">
          <mxGeometry x="340" y="-490" width="90" height="90" as="geometry" />
        </mxCell>
        <mxCell id="0oJ1ldceQkWoPfUIlDhL-3" value="" style="endArrow=classic;html=1;rounded=0;entryX=-0.058;entryY=0.362;entryDx=0;entryDy=0;entryPerimeter=0;" edge="1" parent="1" target="0oJ1ldceQkWoPfUIlDhL-2">
          <mxGeometry width="50" height="50" relative="1" as="geometry">
            <mxPoint x="140" y="-330" as="sourcePoint" />
            <mxPoint x="440" y="-270" as="targetPoint" />
            <Array as="points">
              <mxPoint x="140" y="-460" />
            </Array>
          </mxGeometry>
        </mxCell>
        <mxCell id="0oJ1ldceQkWoPfUIlDhL-4" value="" style="whiteSpace=wrap;html=1;aspect=fixed;" vertex="1" parent="1">
          <mxGeometry x="100" y="-350" width="80" height="80" as="geometry" />
        </mxCell>
        <mxCell id="0oJ1ldceQkWoPfUIlDhL-5" value="" style="endArrow=classic;html=1;rounded=0;entryX=1.009;entryY=0.362;entryDx=0;entryDy=0;entryPerimeter=0;" edge="1" parent="1" target="0oJ1ldceQkWoPfUIlDhL-2">
          <mxGeometry width="50" height="50" relative="1" as="geometry">
            <mxPoint x="750" y="-380" as="sourcePoint" />
            <mxPoint x="440" y="-270" as="targetPoint" />
            <Array as="points">
              <mxPoint x="750" y="-457" />
            </Array>
          </mxGeometry>
        </mxCell>
        <mxCell id="0oJ1ldceQkWoPfUIlDhL-6" value="&lt;b&gt;Çalışma Ofisi&lt;/b&gt;" style="text;html=1;strokeColor=none;fillColor=none;align=center;verticalAlign=middle;whiteSpace=wrap;rounded=0;" vertex="1" parent="1">
          <mxGeometry x="100" y="-350" width="80" height="80" as="geometry" />
        </mxCell>
        <mxCell id="0oJ1ldceQkWoPfUIlDhL-7" value="" style="whiteSpace=wrap;html=1;aspect=fixed;" vertex="1" parent="1">
          <mxGeometry x="710" y="-380" width="80" height="80" as="geometry" />
        </mxCell>
        <mxCell id="0oJ1ldceQkWoPfUIlDhL-8" value="Departmanlar" style="text;html=1;strokeColor=none;fillColor=none;align=center;verticalAlign=middle;whiteSpace=wrap;rounded=0;fontStyle=1" vertex="1" parent="1">
          <mxGeometry x="710" y="-380" width="80" height="80" as="geometry" />
        </mxCell>
        <mxCell id="0oJ1ldceQkWoPfUIlDhL-9" value="" style="whiteSpace=wrap;html=1;aspect=fixed;" vertex="1" parent="1">
          <mxGeometry x="400" y="-360" width="80" height="80" as="geometry" />
        </mxCell>
        <mxCell id="0oJ1ldceQkWoPfUIlDhL-10" value="&lt;b&gt;SINIFLAR&lt;/b&gt;" style="text;html=1;strokeColor=none;fillColor=none;align=center;verticalAlign=middle;whiteSpace=wrap;rounded=0;" vertex="1" parent="1">
          <mxGeometry x="400" y="-360" width="80" height="80" as="geometry" />
        </mxCell>
        <mxCell id="0oJ1ldceQkWoPfUIlDhL-11" value="" style="endArrow=classic;html=1;rounded=0;entryX=0.75;entryY=1;entryDx=0;entryDy=0;" edge="1" parent="1" source="0oJ1ldceQkWoPfUIlDhL-10" target="0oJ1ldceQkWoPfUIlDhL-2">
          <mxGeometry width="50" height="50" relative="1" as="geometry">
            <mxPoint x="440" y="-380" as="sourcePoint" />
            <mxPoint x="460" y="-410" as="targetPoint" />
          </mxGeometry>
        </mxCell>
        <mxCell id="0oJ1ldceQkWoPfUIlDhL-13" value="" style="whiteSpace=wrap;html=1;aspect=fixed;" vertex="1" parent="1">
          <mxGeometry x="260" y="-290" width="80" height="80" as="geometry" />
        </mxCell>
        <mxCell id="0oJ1ldceQkWoPfUIlDhL-14" value="" style="endArrow=classic;html=1;rounded=0;exitX=0.5;exitY=0;exitDx=0;exitDy=0;" edge="1" parent="1" source="0oJ1ldceQkWoPfUIlDhL-13">
          <mxGeometry width="50" height="50" relative="1" as="geometry">
            <mxPoint x="300" y="-350" as="sourcePoint" />
            <mxPoint x="350" y="-400" as="targetPoint" />
          </mxGeometry>
        </mxCell>
        <mxCell id="0oJ1ldceQkWoPfUIlDhL-15" value="" style="whiteSpace=wrap;html=1;aspect=fixed;" vertex="1" parent="1">
          <mxGeometry x="630" y="-250" width="80" height="80" as="geometry" />
        </mxCell>
        <mxCell id="0oJ1ldceQkWoPfUIlDhL-16" value="&lt;b&gt;Ofisler&lt;/b&gt;" style="text;html=1;strokeColor=none;fillColor=none;align=center;verticalAlign=middle;whiteSpace=wrap;rounded=0;" vertex="1" parent="1">
          <mxGeometry x="630" y="-250" width="80" height="80" as="geometry" />
        </mxCell>
        <mxCell id="0oJ1ldceQkWoPfUIlDhL-18" value="" style="endArrow=classic;html=1;rounded=0;" edge="1" parent="1">
          <mxGeometry width="50" height="50" relative="1" as="geometry">
            <mxPoint x="680" y="-250" as="sourcePoint" />
            <mxPoint x="730" y="-300" as="targetPoint" />
            <Array as="points">
              <mxPoint x="710" y="-280" />
            </Array>
          </mxGeometry>
        </mxCell>
        <mxCell id="0oJ1ldceQkWoPfUIlDhL-19" value="" style="endArrow=classic;startArrow=classic;html=1;rounded=0;entryX=0;entryY=0.25;entryDx=0;entryDy=0;exitX=1;exitY=0.75;exitDx=0;exitDy=0;" edge="1" parent="1" source="0oJ1ldceQkWoPfUIlDhL-13" target="0oJ1ldceQkWoPfUIlDhL-16">
          <mxGeometry width="50" height="50" relative="1" as="geometry">
            <mxPoint x="390" y="-220" as="sourcePoint" />
            <mxPoint x="440" y="-270" as="targetPoint" />
          </mxGeometry>
        </mxCell>
        <mxCell id="0oJ1ldceQkWoPfUIlDhL-20" value="Çalışanlar" style="text;html=1;strokeColor=none;fillColor=none;align=center;verticalAlign=middle;whiteSpace=wrap;rounded=0;fontStyle=1" vertex="1" parent="1">
          <mxGeometry x="260" y="-290" width="80" height="80" as="geometry" />
        </mxCell>
        <mxCell id="0oJ1ldceQkWoPfUIlDhL-21" value="" style="whiteSpace=wrap;html=1;aspect=fixed;" vertex="1" parent="1">
          <mxGeometry x="260" y="-150" width="80" height="80" as="geometry" />
        </mxCell>
        <mxCell id="0oJ1ldceQkWoPfUIlDhL-22" value="Memur" style="text;html=1;strokeColor=none;fillColor=none;align=center;verticalAlign=middle;whiteSpace=wrap;rounded=0;fontStyle=1" vertex="1" parent="1">
          <mxGeometry x="260" y="-150" width="80" height="80" as="geometry" />
        </mxCell>
        <mxCell id="0oJ1ldceQkWoPfUIlDhL-23" value="" style="endArrow=classic;html=1;rounded=0;entryX=0.25;entryY=1;entryDx=0;entryDy=0;" edge="1" parent="1" target="0oJ1ldceQkWoPfUIlDhL-20">
          <mxGeometry width="50" height="50" relative="1" as="geometry">
            <mxPoint x="280" y="-150" as="sourcePoint" />
            <mxPoint x="330" y="-200" as="targetPoint" />
          </mxGeometry>
        </mxCell>
        <mxCell id="0oJ1ldceQkWoPfUIlDhL-24" value="" style="swimlane;startSize=0;" vertex="1" parent="1">
          <mxGeometry x="120" y="-180" width="90" height="90" as="geometry" />
        </mxCell>
        <mxCell id="0oJ1ldceQkWoPfUIlDhL-26" value="Profesör" style="text;html=1;strokeColor=none;fillColor=none;align=center;verticalAlign=middle;whiteSpace=wrap;rounded=0;fontStyle=1" vertex="1" parent="0oJ1ldceQkWoPfUIlDhL-24">
          <mxGeometry width="90" height="90" as="geometry" />
        </mxCell>
        <mxCell id="0oJ1ldceQkWoPfUIlDhL-25" value="" style="endArrow=classic;html=1;rounded=0;entryX=0.005;entryY=0.628;entryDx=0;entryDy=0;entryPerimeter=0;" edge="1" parent="1" target="0oJ1ldceQkWoPfUIlDhL-20">
          <mxGeometry width="50" height="50" relative="1" as="geometry">
            <mxPoint x="180" y="-180" as="sourcePoint" />
            <mxPoint x="230" y="-230" as="targetPoint" />
          </mxGeometry>
        </mxCell>
      </root>
    </mxGraphModel>
  </diagram>
</mxfile>
